<?xml version="1.0" encoding="UTF-8" standalone="no"?>
<svg
   xmlns:dc="http://purl.org/dc/elements/1.1/"
   xmlns:cc="http://creativecommons.org/ns#"
   xmlns:rdf="http://www.w3.org/1999/02/22-rdf-syntax-ns#"
   xmlns:svg="http://www.w3.org/2000/svg"
   xmlns="http://www.w3.org/2000/svg"
   xmlns:sodipodi="http://sodipodi.sourceforge.net/DTD/sodipodi-0.dtd"
   xmlns:inkscape="http://www.inkscape.org/namespaces/inkscape"
   height="680"
   width="400"
   version="1.1"
   viewBox="0 0 400 680"
   data-name="Layer 2"
   id="Layer_2"
   sodipodi:docname="logo.svg"
   inkscape:version="0.92.2 (5c3e80d, 2017-08-06)">
  <sodipodi:namedview
     pagecolor="#ffffff"
     bordercolor="#666666"
     borderopacity="1"
     objecttolerance="10"
     gridtolerance="10"
     guidetolerance="10"
     inkscape:pageopacity="0"
     inkscape:pageshadow="2"
     inkscape:window-width="2160"
     inkscape:window-height="1346"
     id="namedview135"
     showgrid="false"
     inkscape:zoom="2.7764706"
     inkscape:cx="230.87818"
     inkscape:cy="484.67198"
     inkscape:window-x="-11"
     inkscape:window-y="-11"
     inkscape:window-maximized="1"
     inkscape:current-layer="Layer_2" />
  <metadata
     id="metadata78">
    <rdf:RDF>
      <cc:Work
         rdf:about="">
        <dc:format>image/svg+xml</dc:format>
        <dc:type
           rdf:resource="http://purl.org/dc/dcmitype/StillImage" />
        <dc:title>PA_Logo_FNL_white</dc:title>
      </cc:Work>
    </rdf:RDF>
  </metadata>
  <defs
     id="defs47">
    <style
       id="style45">
      .cls-1, .cls-4 {
        fill: none;
        stroke-linecap: square;
      }

      .cls-1, .cls-3, .cls-4 {
        stroke: #fff;
        stroke-miterlimit: 10;
      }

      .cls-1 {
        stroke-width: 16.875px;
      }

      .cls-2, .cls-3 {
        fill: #fff;
      }

      .cls-3 {
        stroke-width: 0.25px;
      }

      .cls-4 {
        stroke-width: 10.125px;
      }
    </style>
  </defs>
  <title
     id="title49">PA_Logo_FNL_white</title>
  <g
     transform="translate(0,76.79962)"
     id="layer1">
    <rect
       style="stroke-width:1.20221472;fill:#40413F"
       y="-78.150284"
       x="-0.78041613"
       height="682.91156"
       width="402.72269"
       id="rect87" />
  </g>
  <line
     style="fill:none;stroke:#ffffff;stroke-width:16.875px;stroke-linecap:square;stroke-miterlimit:10"
     id="line51"
     y2="636.62408"
     x2="74.890869"
     y1="361.18805"
     x1="74.890869"
     class="cls-1" />
  <line
     style="fill:none;stroke:#ffffff;stroke-width:16.875px;stroke-linecap:square;stroke-miterlimit:10"
     id="line53"
     y2="636.39911"
     x2="328.38602"
     y1="360.96304"
     x1="328.38602"
     class="cls-1" />
  <g
     transform="translate(66.201137,41.86118)"
     id="g63">
    <path
       style="fill:#ffffff;stroke:#ffffff;stroke-width:0.25px;stroke-miterlimit:10"
       id="path59"
       transform="translate(-170.67599,-81.38094)"
       d="m 242.1336,272.64512 a 96.69792,96.69792 0 0 1 7.86526,-38.82977 103.19407,103.19407 0 0 1 21.13139,-31.70015 98.99111,98.99111 0 0 1 31.21585,-21.38273 95.04089,95.04089 0 0 1 38.58456,-7.86527 92.82926,92.82926 0 0 1 28.01579,4.18092 90.95177,90.95177 0 0 1 24.08623,11.54962 94.2218,94.2218 0 0 1 18.92446,16.9566 76.19967,76.19967 0 0 1 12.53048,20.39575 c 0,-8.184 -0.10379,-17.78963 -0.10379,-28.54794 l 16.81518,-0.004 V 367.51289 H 424.48762 V 318.85 q -8.35876,21.63714 -30.47408,36.868 -22.11531,15.237 -53.08288,15.234 a 96.242,96.242 0 0 1 -39.075,-7.86526 100.81856,100.81856 0 0 1 -31.21585,-21.13139 97.55167,97.55167 0 0 1 -20.88617,-31.21585 96.23412,96.23412 0 0 1 -7.62004,-38.09411 z m 16.71139,-0.49043 a 80.84138,80.84138 0 0 0 50.13417,75.69783 85.57533,85.57533 0 0 0 64.88385,0 83.94777,83.94777 0 0 0 26.53838,-17.45317 79.75652,79.75652 0 0 0 17.69838,-26.048 81.31261,81.31261 0 0 0 6.38785,-32.19671 83.17017,83.17017 0 0 0 -6.38785,-32.44192 79.2765,79.2765 0 0 0 -17.69838,-26.29316 84.15692,84.15692 0 0 0 -26.53839,-17.45312 85.5752,85.5752 0 0 0 -64.88385,0 79.665,79.665 0 0 0 -43.74632,43.74633 83.05958,83.05958 0 0 0 -6.38783,32.44192 z"
       class="cls-3" />
    <path
       style="fill:#ffffff;stroke:#ffffff;stroke-width:0.25px;stroke-miterlimit:10"
       id="path61"
       transform="translate(-170.67599,-81.38094)"
       d="m 350.74139,196.83157 a 81.01144,81.01144 0 0 1 -4.71066,16.15765 78.51674,78.51674 0 0 1 -17.20129,26.05078 82.43271,82.43271 0 0 1 -25.80689,17.45178 80.68552,80.68552 0 0 1 -32.44153,6.38746 82.94445,82.94445 0 0 1 -32.43823,-6.38746 81.326,81.326 0 0 1 -50.13721,-75.6969 82.96281,82.96281 0 0 1 6.39075,-32.44152 79.61406,79.61406 0 0 1 43.74646,-43.74646 83.12253,83.12253 0 0 1 32.43821,-6.38745 80.85368,80.85368 0 0 1 32.44153,6.38745 82.60037,82.60037 0 0 1 25.80689,17.45178 78.04176,78.04176 0 0 1 17.20129,26.29468 84.44778,84.44778 0 0 1 5.69127,23.3535 6.53741,6.53741 0 0 1 2.51939,-0.20559 66.53779,66.53779 0 0 1 15.96706,3.575 99.28879,99.28879 0 0 0 -7.46422,-33.60473 97.30612,97.30612 0 0 0 -90.68665,-59.96558 92.88544,92.88544 0 0 0 -28.01843,4.1792 95.90878,95.90878 0 0 0 -24.08313,11.30491 85.03071,85.03071 0 0 0 -18.925,16.9574 92.83749,92.83749 0 0 0 -13.02542,20.64553 v -14.01088 q 0,-8.10792 -0.24719,-15.48084 -0.25213,-7.37622 -0.2439,-12.78149 V 85.929 H 170.801 v 281.6477 h 17.20459 v -115.017 q 0,-6.38252 -0.24719,-12.5343 -0.25213,-6.14026 -0.2439,-12.53431 9.329,22.11877 31.95044,37.10852 22.59834,14.99964 51.61048,14.993 a 100.75746,100.75746 0 0 0 39.32007,-7.62012 97.13222,97.13222 0 0 0 57.48706,-68.56672 c -4.43407,-3.51177 -11.00279,-5.26259 -17.14116,-6.5742 z"
       class="cls-3" />
  </g>
  <g
     transform="translate(66.201137,41.86118)"
     id="g73">
    <line
       style="fill:none;stroke:#ffffff;stroke-width:10.125px;stroke-linecap:square;stroke-miterlimit:10"
       id="line65"
       y2="360.85748"
       x2="238.40594"
       y1="361.45172"
       x1="32.468658"
       class="cls-4" />
    <line
       style="fill:none;stroke:#ffffff;stroke-width:10.125px;stroke-linecap:square;stroke-miterlimit:10"
       id="line67"
       y2="427.58932"
       x2="238.40639"
       y1="427.58932"
       x1="32.468231"
       class="cls-4" />
    <line
       style="fill:none;stroke:#ffffff;stroke-width:10.125px;stroke-linecap:square;stroke-miterlimit:10"
       id="line69"
       y2="559.8645"
       x2="238.40639"
       y1="559.8645"
       x1="32.468231"
       class="cls-4" />
    <line
       style="fill:none;stroke:#ffffff;stroke-width:10.125px;stroke-linecap:square;stroke-miterlimit:10"
       id="line71"
       y2="493.72693"
       x2="238.40639"
       y1="493.72693"
       x1="32.468231"
       class="cls-4" />
  </g>
</svg>
