<?xml version="1.0" encoding="UTF-8" standalone="no"?>
<svg
   xmlns:dc="http://purl.org/dc/elements/1.1/"
   xmlns:cc="http://creativecommons.org/ns#"
   xmlns:rdf="http://www.w3.org/1999/02/22-rdf-syntax-ns#"
   xmlns:svg="http://www.w3.org/2000/svg"
   xmlns="http://www.w3.org/2000/svg"
   id="Layer_2"
   data-name="Layer 2"
   viewBox="0 0 400 680"
   version="1.1"
   width="400"
   height="680">
  <metadata
     id="metadata78">
    <rdf:RDF>
      <cc:Work
         rdf:about="">
        <dc:format>image/svg+xml</dc:format>
        <dc:type
           rdf:resource="http://purl.org/dc/dcmitype/StillImage" />
        <dc:title>PA_Logo_FNL_white</dc:title>
      </cc:Work>
    </rdf:RDF>
  </metadata>
  <defs
     id="defs47">
    <style
       id="style45">
      .cls-1, .cls-4 {
        fill: none;
        stroke-linecap: square;
      }

      .cls-1, .cls-3, .cls-4 {
        stroke: #fff;
        stroke-miterlimit: 10;
      }

      .cls-1 {
        stroke-width: 16.875px;
      }

      .cls-2, .cls-3 {
        fill: #fff;
      }

      .cls-3 {
        stroke-width: 0.25px;
      }

      .cls-4 {
        stroke-width: 10.125px;
      }
    </style>
    <style
       id="style380">
      .cls-1, .cls-3 {
        fill: none;
        stroke: #fff;
        stroke-linecap: square;
        stroke-miterlimit: 10;
      }

      .cls-1 {
        stroke-width: 8.4375px;
      }

      .cls-2 {
        fill: #fff;
      }

      .cls-3 {
        stroke-width: 5.0625px;
      }
    </style>
  </defs>
  <title
     id="title49">PA_Logo_FNL_white</title>
  <g
     id="layer1"
     transform="translate(0,76.79962)">
    <rect
       id="rect87"
       width="402.72269"
       height="682.91156"
       x="-0.78041613"
       y="-78.150284"
       style="stroke-width:1.20221472;fill:#40413F" />
  </g>
  <g
     transform="matrix(1.9845121,0,0,1.9845121,64.17885,36.878002)"
     id="g422">
    <line
       style="fill:none;stroke:#ffffff;stroke-width:8.4375px;stroke-linecap:square;stroke-miterlimit:10"
       class="cls-1"
       x1="4.28234"
       y1="159.60095"
       x2="4.28234"
       y2="297.31894"
       id="line386" />
    <line
       style="fill:none;stroke:#ffffff;stroke-width:8.4375px;stroke-linecap:square;stroke-miterlimit:10"
       class="cls-1"
       x1="131.02994"
       y1="159.48845"
       x2="131.02994"
       y2="297.20645"
       id="line388" />
    <path
       style="fill:#ffffff"
       class="cls-2"
       d="m 137.57362,213.07112 a 48.34887,48.34887 0 0 1 3.93264,-19.41489 51.59676,51.59676 0 0 1 10.56569,-15.85007 49.49531,49.49531 0 0 1 15.60793,-10.69137 47.52031,47.52031 0 0 1 19.29227,-3.93263 46.41477,46.41477 0 0 1 14.0079,2.09045 45.47637,45.47637 0 0 1 12.04312,5.77481 47.111,47.111 0 0 1 9.46222,8.4783 38.09948,38.09948 0 0 1 6.26524,10.19788 c 0,-4.092 -0.0519,-8.89482 -0.0519,-14.274 l 8.40759,-0.002 v 85.05736 h -8.3557 v -24.33141 q -4.17937,10.81857 -15.237,18.434 -11.05765,7.61853 -26.54144,7.617 a 48.121,48.121 0 0 1 -19.53749,-3.93263 50.409,50.409 0 0 1 -15.60792,-10.5657 48.77547,48.77547 0 0 1 -10.44309,-15.60792 48.117,48.117 0 0 1 -3.81007,-19.04705 z m 8.3557,-0.24522 a 40.42068,40.42068 0 0 0 25.06709,37.84891 42.78753,42.78753 0 0 0 32.44192,0 41.97387,41.97387 0 0 0 13.26919,-8.72658 39.87821,39.87821 0 0 0 8.84919,-13.024 40.65636,40.65636 0 0 0 3.19392,-16.09836 41.58506,41.58506 0 0 0 -3.19392,-16.221 39.63818,39.63818 0 0 0 -8.84919,-13.14658 42.07847,42.07847 0 0 0 -13.26919,-8.72659 42.78765,42.78765 0 0 0 -32.44192,0 39.83259,39.83259 0 0 0 -21.87317,21.87317 41.52986,41.52986 0 0 0 -3.19392,16.22103 z"
       transform="translate(-101.90733,-117.50153)"
       id="path390" />
    <path
       style="fill:#ffffff"
       class="cls-2"
       d="m 201.68736,167.146 a 49.75829,49.75829 0 0 1 -3.80841,19.41614 47.70406,47.70406 0 0 1 -26.17437,26.17273 50.37876,50.37876 0 0 1 -19.66,3.81006 45.59172,45.59172 0 0 1 -25.80523,-7.49652 q -11.30906,-7.49241 -15.97522,-18.55426 0,3.19619 0.12194,6.26715 0.12112,3.07506 0.1236,6.26715 v 57.50848 h -8.6023 V 119.71308 h 8.35676 v 3.19537 q 0,2.70676 0.12194,6.39075 0.12112,3.68563 0.1236,7.74042 v 7.00543 a 46.41832,46.41832 0 0 1 6.5127,-10.32276 42.515,42.515 0 0 1 9.46252,-8.47869 47.95445,47.95445 0 0 1 12.04156,-5.65247 46.44262,46.44262 0 0 1 14.00922,-2.0896 48.36252,48.36252 0 0 1 45.34333,29.98279 50.42158,50.42158 0 0 1 3.80836,19.66168 z m -9.09173,0 a 42.99862,42.99862 0 0 0 -3.07343,-16.22076 39.02082,39.02082 0 0 0 -8.60064,-13.14734 41.30021,41.30021 0 0 0 -12.90345,-8.72589 40.42672,40.42672 0 0 0 -16.22076,-3.19373 41.56122,41.56122 0 0 0 -16.21912,3.19373 39.80707,39.80707 0 0 0 -21.87323,21.87323 41.48149,41.48149 0 0 0 -3.19537,16.22076 40.41218,40.41218 0 0 0 25.0686,37.84845 41.47227,41.47227 0 0 0 16.21912,3.19373 40.34272,40.34272 0 0 0 16.22076,-3.19373 41.21646,41.21646 0 0 0 12.90345,-8.72589 39.25836,39.25836 0 0 0 8.60064,-13.02539 42.04016,42.04016 0 0 0 3.07343,-16.09717 z"
       transform="translate(-101.90733,-117.50153)"
       id="path392" />
    <path
       style="fill:#ffffff"
       class="cls-2"
       d="m 137.57362,213.07112 a 48.34887,48.34887 0 0 1 3.93264,-19.41489 51.59676,51.59676 0 0 1 10.56569,-15.85007 49.49531,49.49531 0 0 1 15.60793,-10.69137 47.52031,47.52031 0 0 1 19.29227,-3.93263 46.41477,46.41477 0 0 1 14.0079,2.09045 45.47637,45.47637 0 0 1 12.04312,5.77481 47.111,47.111 0 0 1 9.46222,8.4783 38.09948,38.09948 0 0 1 6.26524,10.19788 c 0,-4.092 -0.0519,-8.89482 -0.0519,-14.274 l 8.40759,-0.002 v 85.05736 h -8.3557 v -24.33141 q -4.17937,10.81857 -15.237,18.434 -11.05765,7.61853 -26.54144,7.617 a 48.121,48.121 0 0 1 -19.53749,-3.93263 50.409,50.409 0 0 1 -15.60792,-10.5657 48.77547,48.77547 0 0 1 -10.44309,-15.60792 48.117,48.117 0 0 1 -3.81007,-19.04705 z m 8.3557,-0.24522 a 40.42068,40.42068 0 0 0 25.06709,37.84891 42.78753,42.78753 0 0 0 32.44192,0 41.97387,41.97387 0 0 0 13.26919,-8.72658 39.87821,39.87821 0 0 0 8.84919,-13.024 40.65636,40.65636 0 0 0 3.19392,-16.09836 41.58506,41.58506 0 0 0 -3.19392,-16.221 39.63818,39.63818 0 0 0 -8.84919,-13.14658 42.07847,42.07847 0 0 0 -13.26919,-8.72659 42.78765,42.78765 0 0 0 -32.44192,0 39.83259,39.83259 0 0 0 -21.87317,21.87317 41.52986,41.52986 0 0 0 -3.19392,16.22103 z"
       transform="translate(-101.90733,-117.50153)"
       id="path394" />
    <g
       id="g404">
      <line
         style="fill:none;stroke:#ffffff;stroke-width:5.0625px;stroke-linecap:square;stroke-miterlimit:10"
         class="cls-3"
         x1="16.17182"
         y1="180.66335"
         x2="119.14046"
         y2="180.36623"
         id="line396" />
      <line
         style="fill:none;stroke:#ffffff;stroke-width:5.0625px;stroke-linecap:square;stroke-miterlimit:10"
         class="cls-3"
         x1="16.1716"
         y1="213.73215"
         x2="119.14068"
         y2="213.73215"
         id="line398" />
      <line
         style="fill:none;stroke:#ffffff;stroke-width:5.0625px;stroke-linecap:square;stroke-miterlimit:10"
         class="cls-3"
         x1="16.1716"
         y1="279.86975"
         x2="119.14068"
         y2="279.86975"
         id="line400" />
      <line
         style="fill:none;stroke:#ffffff;stroke-width:5.0625px;stroke-linecap:square;stroke-miterlimit:10"
         class="cls-3"
         x1="16.1716"
         y1="246.80095"
         x2="119.14068"
         y2="246.80095"
         id="line402" />
    </g>
  </g>
</svg>
