<?xml version="1.0" encoding="UTF-8" standalone="no"?>
<svg
   xmlns:dc="http://purl.org/dc/elements/1.1/"
   xmlns:cc="http://creativecommons.org/ns#"
   xmlns:rdf="http://www.w3.org/1999/02/22-rdf-syntax-ns#"
   xmlns:svg="http://www.w3.org/2000/svg"
   xmlns="http://www.w3.org/2000/svg"
   viewBox="0 0 442.01868 878.00934"
   height="878.00934"
   width="442.01868"
   xml:space="preserve"
   id="svg3699"
   version="1.1"><metadata
     id="metadata3705"><rdf:RDF><cc:Work
         rdf:about=""><dc:format>image/svg+xml</dc:format><dc:type
           rdf:resource="http://purl.org/dc/dcmitype/StillImage" /><dc:title></dc:title></cc:Work></rdf:RDF></metadata><defs
     id="defs3703"><clipPath
       id="clipPath3723"
       clipPathUnits="userSpaceOnUse"><path
         id="path3721"
         d="M 0,658.507 H 331.514 V 0 H 0 Z" /></clipPath></defs><g
     transform="matrix(1.3333333,0,0,-1.3333333,0,878.00933)"
     id="g3707"><g
       transform="translate(42.8725,313.2959)"
       id="g3709"><path
         id="path3711"
         style="fill:none;stroke:#84332e;stroke-width:16.875;stroke-linecap:square;stroke-linejoin:miter;stroke-miterlimit:10;stroke-dasharray:none;stroke-opacity:1"
         d="M 0,0 V -275.436" /></g><g
       transform="translate(296.3682,313.5215)"
       id="g3713"><path
         id="path3715"
         style="fill:none;stroke:#84332e;stroke-width:16.875;stroke-linecap:square;stroke-linejoin:miter;stroke-miterlimit:10;stroke-dasharray:none;stroke-opacity:1"
         d="M 0,0 V -275.437" /></g><g
       id="g3717"><g
         clip-path="url(#clipPath3723)"
         id="g3719"><g
           transform="translate(122.3521,441.8491)"
           id="g3725"><path
             id="path3727"
             style="fill:#ba7828;fill-opacity:1;fill-rule:nonzero;stroke:none"
             d="m 0,0 c 0,-11.476 2.127,-22.204 6.388,-32.197 4.254,-9.998 10.078,-18.679 17.453,-26.048 7.368,-7.375 16.135,-13.198 26.293,-17.453 10.152,-4.26 20.966,-6.387 32.442,-6.387 11.464,0 22.278,2.127 32.442,6.387 10.151,4.255 18.998,10.078 26.538,17.453 7.534,7.369 13.438,16.05 17.698,26.048 4.255,9.993 6.388,20.721 6.388,32.197 0,11.464 -2.133,22.278 -6.388,32.442 -4.26,10.152 -10.164,18.918 -17.698,26.293 -7.54,7.375 -16.387,13.186 -26.538,17.453 -10.164,4.255 -20.978,6.388 -32.442,6.388 -11.476,0 -22.29,-2.133 -32.442,-6.388 C 39.976,71.921 31.209,66.11 23.841,58.735 16.466,51.36 10.642,42.594 6.388,32.442 2.127,22.278 0,11.464 0,0 m -16.711,-0.49 c 0,13.762 2.617,26.703 7.865,38.829 5.235,12.12 12.285,22.689 21.131,31.701 8.852,9.011 19.249,16.135 31.216,21.382 11.955,5.242 24.822,7.866 38.584,7.866 9.828,0 19.17,-1.398 28.016,-4.182 8.847,-2.783 16.871,-6.632 24.086,-11.549 7.204,-4.916 13.518,-10.569 18.925,-16.956 5.407,-6.389 9.582,-13.193 12.53,-20.396 0,8.184 -0.103,17.789 -0.103,28.547 l 16.815,0.005 V -95.358 h -16.712 v 48.663 c -5.572,-14.425 -15.73,-26.71 -30.474,-36.868 -14.744,-10.158 -32.442,-15.234 -53.083,-15.234 -14.093,0 -27.121,2.624 -39.075,7.865 -11.966,5.236 -22.369,12.286 -31.216,21.132 -8.846,8.852 -15.81,19.249 -20.886,31.216 -5.088,11.954 -7.619,24.65 -7.619,38.094" /></g><g
           transform="translate(215.6846,533.209)"
           id="g3729"><path
             id="path3731"
             style="fill:#84332e;fill-opacity:1;fill-rule:nonzero;stroke:none"
             d="m 0,0 c 0,11.466 -2.054,22.28 -6.147,32.441 -4.1,10.152 -9.829,18.922 -17.202,26.295 -7.373,7.373 -15.974,13.187 -25.806,17.452 -9.828,4.252 -20.642,6.388 -32.442,6.388 -11.473,0 -22.287,-2.136 -32.438,-6.388 -10.161,-4.265 -18.925,-10.079 -26.298,-17.452 -7.373,-7.373 -13.193,-16.143 -17.448,-26.295 -4.265,-10.161 -6.391,-20.975 -6.391,-32.441 0,-11.473 2.126,-22.205 6.391,-32.194 4.255,-10 10.075,-18.678 17.448,-26.051 7.373,-7.373 16.137,-13.197 26.298,-17.452 10.151,-4.261 20.965,-6.387 32.438,-6.387 11.8,0 22.614,2.126 32.442,6.387 9.832,4.255 18.433,10.079 25.806,17.452 7.373,7.373 13.102,16.051 17.202,26.051 C -2.054,-22.205 0,-11.473 0,0 m 18.184,0 c 0,-13.764 -2.541,-26.713 -7.618,-38.832 -5.086,-12.126 -12.043,-22.61 -20.889,-31.456 -8.85,-8.85 -19.34,-15.814 -31.459,-20.89 -12.126,-5.079 -25.237,-7.62 -39.321,-7.62 -19.34,0 -36.544,4.993 -51.61,14.993 -15.078,9.99 -25.731,22.363 -31.95,37.109 0,-4.262 0.076,-8.441 0.244,-12.534 0.161,-4.101 0.247,-8.28 0.247,-12.535 v -115.017 h -17.205 V 94.866 h 16.714 v -6.391 c 0,-3.609 0.076,-7.864 0.244,-12.781 0.161,-4.915 0.247,-10.076 0.247,-15.481 V 46.202 c 3.273,7.205 7.62,14.087 13.025,20.646 5.405,6.552 11.714,12.204 18.925,16.957 7.202,4.746 15.237,8.516 24.083,11.305 8.85,2.782 18.187,4.179 28.019,4.179 13.764,0 26.618,-2.544 38.585,-7.62 11.958,-5.083 22.362,-12.044 31.212,-20.89 C -1.477,61.933 5.48,51.442 10.566,39.323 15.643,27.194 18.184,14.083 18.184,0" /></g><g
           transform="translate(122.3521,441.8491)"
           id="g3733"><path
             id="path3735"
             style="fill:#ba7828;fill-opacity:1;fill-rule:nonzero;stroke:none"
             d="m 0,0 c 0,-11.476 2.127,-22.204 6.388,-32.197 4.254,-9.998 10.078,-18.679 17.453,-26.048 7.368,-7.375 16.135,-13.198 26.293,-17.453 10.152,-4.26 20.966,-6.387 32.442,-6.387 11.464,0 22.278,2.127 32.442,6.387 10.151,4.255 18.998,10.078 26.538,17.453 7.534,7.369 13.438,16.05 17.698,26.048 4.255,9.993 6.388,20.721 6.388,32.197 0,11.464 -2.133,22.278 -6.388,32.442 -4.26,10.152 -10.164,18.918 -17.698,26.293 -7.54,7.375 -16.387,13.186 -26.538,17.453 -10.164,4.255 -20.978,6.388 -32.442,6.388 -11.476,0 -22.29,-2.133 -32.442,-6.388 C 39.976,71.921 31.209,66.11 23.841,58.735 16.466,51.36 10.642,42.594 6.388,32.442 2.127,22.278 0,11.464 0,0 m -16.711,-0.49 c 0,13.762 2.617,26.703 7.865,38.829 5.235,12.12 12.285,22.689 21.131,31.701 8.852,9.011 19.249,16.135 31.216,21.382 11.955,5.242 24.822,7.866 38.584,7.866 9.828,0 19.17,-1.398 28.016,-4.182 8.847,-2.783 16.871,-6.632 24.086,-11.549 7.204,-4.916 13.518,-10.569 18.925,-16.956 5.407,-6.389 9.582,-13.193 12.53,-20.396 0,8.184 -0.103,17.789 -0.103,28.547 l 16.815,0.005 V -95.358 h -16.712 v 48.663 c -5.572,-14.425 -15.73,-26.71 -30.474,-36.868 -14.744,-10.158 -32.442,-15.234 -53.083,-15.234 -14.093,0 -27.121,2.624 -39.075,7.865 -11.966,5.236 -22.369,12.286 -31.216,21.132 -8.846,8.852 -15.81,19.249 -20.886,31.216 -5.088,11.954 -7.619,24.65 -7.619,38.094" /></g><g
           transform="translate(214.248,517.1724)"
           id="g3737"><path
             id="path3739"
             style="fill:#84332e;fill-opacity:1;fill-rule:nonzero;stroke:none"
             d="m 0,0 c -1.023,-5.584 -2.586,-10.973 -4.711,-16.158 -4.1,-9.999 -9.828,-18.677 -17.201,-26.05 -7.373,-7.374 -15.975,-13.197 -25.807,-17.452 -9.828,-4.262 -20.642,-6.388 -32.441,-6.388 -11.473,0 -22.287,2.126 -32.439,6.388 -10.161,4.255 -18.924,10.078 -26.297,17.452 -7.374,7.373 -13.194,16.051 -17.449,26.05 -4.265,9.99 -6.391,20.721 -6.391,32.195 0,11.466 2.126,22.28 6.391,32.441 4.255,10.151 10.075,18.922 17.449,26.295 7.373,7.373 16.136,13.187 26.297,17.452 10.152,4.252 20.966,6.387 32.439,6.387 11.799,0 22.613,-2.135 32.441,-6.387 9.832,-4.265 18.434,-10.079 25.807,-17.452 C -14.539,67.4 -8.811,58.629 -4.711,48.478 -1.716,41.044 0.175,33.257 0.98,25.125 1.72,25.338 2.552,25.429 3.5,25.33 8.995,24.76 14.384,23.612 19.467,21.755 18.867,33.683 16.385,44.89 12.003,55.36 6.917,67.479 -0.04,77.97 -8.887,86.816 c -8.849,8.846 -19.254,15.807 -31.212,20.89 -11.967,5.075 -24.821,7.62 -38.585,7.62 -9.831,0 -19.169,-1.398 -28.018,-4.18 -8.846,-2.788 -16.881,-6.559 -24.083,-11.305 -7.212,-4.752 -13.52,-10.404 -18.925,-16.957 -5.406,-6.559 -9.753,-13.441 -13.026,-20.645 V 76.25 c 0,5.405 -0.085,10.566 -0.247,15.48 -0.168,4.918 -0.244,9.173 -0.244,12.782 v 6.39 h -16.713 v -281.647 h 17.204 v 115.017 c 0,4.255 -0.085,8.434 -0.247,12.534 -0.168,4.093 -0.244,8.273 -0.244,12.534 6.22,-14.745 16.872,-27.118 31.951,-37.108 15.065,-10 32.27,-14.993 51.61,-14.993 14.083,0 27.195,2.541 39.32,7.62 12.119,5.076 22.61,12.04 31.459,20.89 8.847,8.846 15.804,19.33 20.89,31.456 2.198,5.248 3.892,10.662 5.139,16.221 C 12.707,-3.063 6.139,-1.312 0,0" /></g><g
           transform="translate(66.6514,271.1709)"
           id="g3741"><path
             id="path3743"
             style="fill:none;stroke:#84332e;stroke-width:10.125;stroke-linecap:square;stroke-linejoin:miter;stroke-miterlimit:10;stroke-dasharray:none;stroke-opacity:1"
             d="M 0,0 205.937,0.595" /></g><g
           transform="translate(66.6509,205.0332)"
           id="g3745"><path
             id="path3747"
             style="fill:none;stroke:#84332e;stroke-width:10.125;stroke-linecap:square;stroke-linejoin:miter;stroke-miterlimit:10;stroke-dasharray:none;stroke-opacity:1"
             d="M 0,0 H 205.938" /></g><g
           transform="translate(66.6509,72.7588)"
           id="g3749"><path
             id="path3751"
             style="fill:none;stroke:#84332e;stroke-width:10.125;stroke-linecap:square;stroke-linejoin:miter;stroke-miterlimit:10;stroke-dasharray:none;stroke-opacity:1"
             d="M 0,0 H 205.938" /></g><g
           transform="translate(66.6509,138.8965)"
           id="g3753"><path
             id="path3755"
             style="fill:none;stroke:#84332e;stroke-width:10.125;stroke-linecap:square;stroke-linejoin:miter;stroke-miterlimit:10;stroke-dasharray:none;stroke-opacity:1"
             d="M 0,0 H 205.938" /></g></g></g></g></svg>