<svg id="Layer_2" data-name="Layer 2" xmlns="http://www.w3.org/2000/svg" viewBox="0 0 573.68701 41.89404">
  <defs>
    <style>
      .cls-1 {
        fill: #83332e;
      }
    </style>
  </defs>
  <title>PA_typeset</title>
  <g>
    <path class="cls-1" d="M24.21826,68.28776h7.106q5.76562,0,8.31445,1.06494A8.45748,8.45748,0,0,1,43.6582,72.798a10.64456,10.64456,0,0,1,1.47119,5.70606,9.58018,9.58018,0,0,1-1.92626,6.125,9.9882,9.9882,0,0,1-5.22754,3.39746,30.046,30.046,0,0,1-7.05811.5498V103.4821H24.21826Zm6.69922,13.75732h2.1294A11.51591,11.51591,0,0,0,36.54,81.68522a3.10736,3.10736,0,0,0,1.543-1.188,3.48314,3.48314,0,0,0,.5625-2.00488,3.2041,3.2041,0,0,0-1.5791-2.97656,8.998,8.998,0,0,0-4.25879-.69629H30.91748Z" transform="translate(-24.21826 -67.40251)"/>
    <path class="cls-1" d="M50.25781,68.28776h7.09766q5.83082,0,8.30469,1.04053a8.51479,8.51479,0,0,1,3.979,3.45752A10.59139,10.59139,0,0,1,71.145,78.50407a9.73784,9.73784,0,0,1-1.66309,5.80176,10.09,10.09,0,0,1-5.01123,3.52929l8.33741,15.647H65.48438L57.57031,88.57633H56.957V103.4821H50.25781ZM56.957,82.04508h2.09912q3.19555,0,4.40039-.83984a3.15345,3.15345,0,0,0,1.20459-2.78516,3.40794,3.40794,0,0,0-.59619-2.0039,3.30846,3.30846,0,0,0-1.59814-1.22412A12.09784,12.09784,0,0,0,58.794,74.8195H56.957Z" transform="translate(-24.21826 -67.40251)"/>
    <path class="cls-1" d="M77.76123,68.28776h19.2124v6.55566H84.4126v6.36426h12.561v6.436H84.4126V96.902h12.561v6.58008H77.76123Z" transform="translate(-24.21826 -67.40251)"/>
    <path class="cls-1" d="M107.13232,68.28776h6.52735l8.1582,24.54785,8.23291-24.54785h6.523l5.9043,35.19434h-6.47852l-3.77344-22.22657-7.477,22.22657h-5.90429l-7.41065-22.22657-3.86377,22.22657h-6.53174Z" transform="translate(-24.21826 -67.40251)"/>
    <path class="cls-1" d="M147.50146,68.28776h6.65137V103.4821h-6.65137Z" transform="translate(-24.21826 -67.40251)"/>
    <path class="cls-1" d="M161.72314,68.28776h19.21241v6.55566h-12.561v6.36426h12.561v6.436h-12.561V96.902h12.561v6.58008H161.72314Z" transform="translate(-24.21826 -67.40251)"/>
    <path class="cls-1" d="M187.92383,68.28776h7.09765q5.83082,0,8.30469,1.04053a8.51477,8.51477,0,0,1,3.979,3.45752,10.59148,10.59148,0,0,1,1.50586,5.71826,9.73784,9.73784,0,0,1-1.66309,5.80176,10.09008,10.09008,0,0,1-5.01123,3.52929l8.3374,15.647h-7.32373l-7.91406-14.90577h-.61328V103.4821h-6.69922Zm6.69922,13.75732h2.09912q3.19556,0,4.40039-.83984a3.15347,3.15347,0,0,0,1.20459-2.78516,3.40794,3.40794,0,0,0-.59619-2.0039,3.30849,3.30849,0,0,0-1.59815-1.22412A12.09784,12.09784,0,0,0,196.46,74.8195h-1.83691Z" transform="translate(-24.21826 -67.40251)"/>
    <path class="cls-1" d="M240.33984,68.28776h6.79395l13.53613,35.19434H253.708l-2.75391-7.25H236.59277l-2.86328,7.25h-6.96191Zm3.43848,9.331-4.72168,12.08252h9.416Z" transform="translate(-24.21826 -67.40251)"/>
    <path class="cls-1" d="M264.93848,68.28776h6.69922V97.09342h9.76171v6.38868H264.93848Z" transform="translate(-24.21826 -67.40251)"/>
    <path class="cls-1" d="M285.604,68.28776h6.69922V97.09342h9.76172v6.38868H285.604Z" transform="translate(-24.21826 -67.40251)"/>
    <path class="cls-1" d="M306.05029,68.28776h6.65186V103.4821h-6.65186Z" transform="translate(-24.21826 -67.40251)"/>
    <path class="cls-1" d="M330.31934,68.28776h6.79394l13.53613,35.19434h-6.96192l-2.7539-7.25H326.57227l-2.86329,7.25h-6.96191Zm3.43847,9.331-4.72168,12.08252h9.416Z" transform="translate(-24.21826 -67.40251)"/>
    <path class="cls-1" d="M354.94238,68.28776h6.42578l15.05957,23.15918V68.28776H383.127V103.4821h-6.44531l-15.04-23.08789V103.4821h-6.69922Z" transform="translate(-24.21826 -67.40251)"/>
    <path class="cls-1" d="M421.9209,74.47282l-4.68555,4.4668q-4.77978-5.053-10.75683-5.05323a11.7878,11.7878,0,0,0-11.95215,11.95069,12.56771,12.56771,0,0,0,1.52929,6.25048,10.9679,10.9679,0,0,0,4.32715,4.28711,12.55852,12.55852,0,0,0,6.21582,1.55664,12.80724,12.80724,0,0,0,5.33008-1.08984,19.11078,19.11078,0,0,0,5.30664-3.96289l4.542,4.73828a24.92431,24.92431,0,0,1-7.36914,5.27832,20.10751,20.10751,0,0,1-7.91894,1.47168,18.23209,18.23209,0,0,1-13.43457-5.20312,18.01589,18.01589,0,0,1-5.22754-13.33838,18.25857,18.25857,0,0,1,2.37988-9.355,17.70975,17.70975,0,0,1,6.81934-6.57959,19.23082,19.23082,0,0,1,9.55859-2.48828,20.28747,20.28747,0,0,1,15.33594,7.07031Z" transform="translate(-24.21826 -67.40251)"/>
    <path class="cls-1" d="M426.81738,68.28776H446.0293v6.55566H433.46875v6.36426H446.0293v6.436H433.46875V96.902H446.0293v6.58008H426.81738Z" transform="translate(-24.21826 -67.40251)"/>
    <path class="cls-1" d="M471.15137,73.07292l-4.96094,4.37841q-2.61329-3.63647-5.32129-3.63671a3.23428,3.23428,0,0,0-2.15723.706,2.05341,2.05341,0,0,0-.83886,1.59082,2.72391,2.72391,0,0,0,.59863,1.67481,45.57884,45.57884,0,0,0,4.91309,4.522q3.835,3.20654,4.65039,4.04346a14.03708,14.03708,0,0,1,2.88769,3.93554,9.82418,9.82418,0,0,1,.85059,4.103,9.41134,9.41134,0,0,1-2.99414,7.1543,10.918,10.918,0,0,1-7.80762,2.82226,11.6124,11.6124,0,0,1-6.55078-1.8418,14.55289,14.55289,0,0,1-4.77832-5.79l5.63086-3.39747q2.54,4.66554,5.84668,4.666a4.3035,4.3035,0,0,0,2.89941-1.00586,2.98833,2.98833,0,0,0,1.17481-2.32031,4.00776,4.00776,0,0,0-.88672-2.39258,25.57226,25.57226,0,0,0-3.90723-3.65967q-5.75244-4.69042-7.42969-7.23828a9.19406,9.19406,0,0,1-1.67773-5.084,8.31377,8.31377,0,0,1,2.791-6.28028,9.6784,9.6784,0,0,1,6.88672-2.62011,10.86652,10.86652,0,0,1,5.01856,1.22021A18.28106,18.28106,0,0,1,471.15137,73.07292Z" transform="translate(-24.21826 -67.40251)"/>
    <path class="cls-1" d="M479.80859,96.85514l4.666,2.34375-5.91016,10.09766-3.2539-1.55566Z" transform="translate(-24.21826 -67.40251)"/>
    <path class="cls-1" d="M504.333,68.28776h6.65137V103.4821H504.333Z" transform="translate(-24.21826 -67.40251)"/>
    <path class="cls-1" d="M518.55469,68.28776h6.42578L540.04,91.44694V68.28776h6.69922V103.4821H540.294l-15.04-23.08789V103.4821h-6.69922Z" transform="translate(-24.21826 -67.40251)"/>
    <path class="cls-1" d="M585.5332,74.47282l-4.68554,4.4668q-4.78125-5.053-10.75684-5.05323a11.7878,11.7878,0,0,0-11.95215,11.95069,12.56772,12.56772,0,0,0,1.5293,6.25048,10.96145,10.96145,0,0,0,4.32715,4.28711A12.55742,12.55742,0,0,0,570.21,97.93131a12.81185,12.81185,0,0,0,5.33106-1.08984,19.12506,19.12506,0,0,0,5.30664-3.96289l4.542,4.73828a24.92431,24.92431,0,0,1-7.36914,5.27832,20.10753,20.10753,0,0,1-7.91895,1.47168A18.23055,18.23055,0,0,1,556.667,99.16374a18.01589,18.01589,0,0,1-5.22754-13.33838,18.25848,18.25848,0,0,1,2.37989-9.355,17.703,17.703,0,0,1,6.81933-6.57959,19.22819,19.22819,0,0,1,9.5586-2.48828,20.28743,20.28743,0,0,1,15.33593,7.07031Z" transform="translate(-24.21826 -67.40251)"/>
    <path class="cls-1" d="M594.14941,96.66374a3.63848,3.63848,0,0,1,2.65528,1.08789,3.58334,3.58334,0,0,1,1.10058,2.64453,3.75635,3.75635,0,0,1-7.51269,0,3.58338,3.58338,0,0,1,1.10058-2.64453A3.6391,3.6391,0,0,1,594.14941,96.66374Z" transform="translate(-24.21826 -67.40251)"/>
  </g>
</svg>
